PathFileType	4	(X/Y/Z)	 s11c0403.trc
DataRate	CameraRate	NumFrames	NumMarkers	Units	OrigDataRate	OrigDataStartFrame	OrigNumFrames
200	200	4	48	mm	200	1001	2000
Frame#	Time	racr			lacr			c7			jug			rlel			rdr			llel			ldr			s2			lic			ric			lasi			rasi			rpsi			lpsi			rgt			lgt			rth1			rth2			rth3			rth4			rlfc			rmfc			rsh1			rsh2			rsh3			rsh4			rlmal			rcal			rtoe			rmt5			lth1			lth2			lth4			lth3			llfc			lmfc			llmal			lcal			lmt5			lsh1			lsh2			lsh3			lsh4			ltoe			SBIKE			LBIKE			RBIKE			
		X1	Y1	Z1	X2	Y2	Z2	X3	Y3	Z3	X4	Y4	Z4	X5	Y5	Z5	X6	Y6	Z6	X7	Y7	Z7	X8	Y8	Z8	X9	Y9	Z9	X10	Y10	Z10	X11	Y11	Z11	X12	Y12	Z12	X13	Y13	Z13	X14	Y14	Z14	X15	Y15	Z15	X16	Y16	Z16	X17	Y17	Z17	X18	Y18	Z18	X19	Y19	Z19	X20	Y20	Z20	X21	Y21	Z21	X22	Y22	Z22	X23	Y23	Z23	X24	Y24	Z24	X25	Y25	Z25	X26	Y26	Z26	X27	Y27	Z27	X28	Y28	Z28	X29	Y29	Z29	X30	Y30	Z30	X31	Y31	Z31	X32	Y32	Z32	X33	Y33	Z33	X34	Y34	Z34	X35	Y35	Z35	X36	Y36	Z36	X37	Y37	Z37	X38	Y38	Z38	X39	Y39	Z39	X40	Y40	Z40	X41	Y41	Z41	X42	Y42	Z42	X43	Y43	Z43	X44	Y44	Z44	X45	Y45	Z45	X46	Y46	Z46	X47	Y47	Z47	X48	Y48	Z48	
1001	5.0050	807.775849	1335.572085	-10.632504	818.641104	1358.401047	-361.217789	802.847881	1473.574427	-179.857816	783.545409	1291.915583	-196.952274	602.161112	1141.141382	72.371875	772.821624	973.901233	-32.683415	617.252070	1189.772696	-525.408073	792.021439	952.009250	-436.346749	211.135570	1319.928647	-257.805042	435.478140	1276.638487	-440.519252	406.361676	1302.903228	-39.480889	450.846887	1203.819214	-402.204011	430.268622	1227.891344	-73.025234	263.548289	1391.271398	-209.063267	269.680702	1376.971822	-300.853490	350.782160	1189.174688	-19.761841	298.495175	1158.594184	-449.786700	446.064563	1083.754911	-17.439349	525.308052	1036.524416	-29.617217	567.165111	959.339239	-38.811687	550.712336	1061.369598	-42.485911	643.866291	879.778391	-56.845059	646.128075	860.803885	-188.693996	552.729219	742.613734	-46.779847	516.255429	664.066265	-66.020944	446.635746	611.967839	-68.020243	537.511744	652.496909	-97.867340	345.125270	509.166441	-84.574257	276.029289	516.434748	-132.815913	530.064493	380.562417	-128.412923	454.493282	380.395722	-59.820538	341.429741	1021.033031	-466.675160	382.090189	946.399201	-462.022679	417.691643	953.843873	-455.339351	379.839847	856.380787	-459.579469	398.546919	719.502083	-441.800008	414.042520	703.353056	-315.503476	103.000990	409.498715	-417.300083	42.723852	423.872628	-381.420772	138.691290	238.270225	-446.511724	310.349878	629.139599	-460.773465	273.005500	554.120863	-444.682509	200.661583	503.849908	-439.357784	298.933990	535.143809	-422.682328	217.709779	181.244102	-377.180221	-170.124407	972.466380	-173.299159	1.164123	83.061438	-460.725991	-15.388195	81.341931	-62.260358	
1002	5.0100	808.594914	1335.501275	-10.641559	817.617605	1358.471025	-362.730205	803.753644	1474.005261	-180.660429	784.609055	1292.774138	-197.720161	600.937490	1141.755836	71.462395	772.168840	974.025441	-32.273241	616.427244	1190.154350	-525.510193	791.926917	952.262543	-437.368424	211.432567	1321.190544	-256.483481	435.190718	1279.083082	-439.643776	406.727806	1301.589097	-38.802593	451.022685	1205.793046	-401.996062	429.682931	1225.994596	-72.089245	264.346871	1391.834770	-206.957440	270.158841	1378.299934	-298.935706	349.202867	1187.227065	-20.071938	299.988459	1160.463613	-450.942875	445.761723	1078.935221	-19.830631	521.256350	1031.286535	-29.427372	562.152961	953.756869	-38.992559	545.317778	1055.856846	-40.368511	636.797216	871.970461	-56.839384	639.169964	853.112466	-188.277440	547.331979	733.137399	-47.311362	512.707850	653.925153	-66.742829	444.237646	600.070307	-68.598774	533.976253	642.910648	-98.899716	345.041341	496.353090	-85.123122	275.643685	501.714836	-133.497825	533.423871	372.990576	-127.951555	457.635320	370.899556	-59.535917	345.367345	1022.849239	-467.577518	387.770620	949.245790	-463.302305	423.152389	957.478156	-456.316819	387.739218	859.106471	-461.567817	408.129115	722.385857	-443.687469	423.780891	705.946153	-317.748072	104.898209	420.142981	-418.124391	45.362979	436.397558	-382.024657	135.225330	247.465732	-446.503052	317.704316	634.112294	-462.175492	278.498385	560.117826	-445.826405	204.926301	511.634524	-440.304569	303.979951	540.480631	-423.771085	212.402774	188.122986	-377.181317	-170.167508	972.086939	-173.851223	1.173627	83.014706	-460.723781	-15.419178	81.279146	-62.238312	
1003	5.0150	809.261479	1335.653136	-10.378426	817.457416	1360.441099	-364.901135	804.493379	1474.477986	-181.423050	785.957737	1293.752203	-198.828993	600.022577	1142.318900	70.542454	771.533583	974.159901	-31.627136	615.628626	1190.501503	-525.628903	791.563467	952.327363	-438.350819	212.447404	1321.585776	-255.460076	434.909789	1281.250120	-438.814719	407.387966	1299.815504	-37.982551	451.213238	1207.615767	-401.847576	429.338626	1223.893358	-71.408809	265.105014	1391.886583	-204.872116	270.540678	1379.435362	-296.979147	347.640083	1184.966824	-20.518865	300.975520	1161.972480	-451.315125	442.904827	1074.671930	-20.114078	517.411808	1025.580948	-29.458010	556.775225	947.564375	-39.227917	542.653571	1049.752851	-40.182530	629.378023	863.643599	-56.851943	631.731828	845.034000	-187.645229	541.843955	723.378899	-47.950740	508.889942	643.315524	-67.666810	441.714976	588.101364	-69.370888	530.117294	632.947690	-100.114950	344.805132	483.522870	-85.740187	275.357710	487.071026	-134.492701	536.075880	364.601224	-127.361992	460.031792	360.945360	-59.296115	349.394073	1024.700782	-468.417544	393.667637	952.037622	-464.396241	428.753583	960.992992	-457.277479	395.535884	861.782248	-463.265244	417.830679	725.317661	-445.310747	433.772378	708.954132	-319.617138	107.423573	430.877856	-418.887113	48.443993	448.653046	-382.162353	132.451265	257.147261	-446.586060	325.309642	639.120551	-463.338815	284.330371	566.066194	-446.788695	209.613667	519.503452	-441.227800	309.346679	546.015578	-424.818649	207.712966	195.345312	-377.253272	-170.343554	971.951836	-174.061737	1.161397	83.131113	-460.684479	-15.422746	81.263107	-62.226825	
1004	5.0200	809.988061	1335.923521	-10.018655	818.528630	1363.145795	-368.175524	805.308372	1475.139288	-182.268953	787.430316	1295.069038	-200.261170	599.333854	1143.109789	69.599876	770.911359	974.434551	-30.845824	615.147922	1190.820312	-525.788712	790.984451	952.127786	-439.086822	213.142769	1322.430509	-253.679557	434.625502	1283.190580	-437.982160	408.054515	1297.609376	-37.247708	451.292426	1209.098498	-401.738945	429.347021	1221.498898	-70.847317	266.339996	1392.304571	-202.760579	270.718544	1380.421293	-294.962756	346.085931	1182.303080	-20.923897	301.967804	1163.226978	-451.575436	439.622876	1070.000019	-19.987657	513.310361	1019.840213	-29.297484	551.310375	941.177804	-39.470522	538.769191	1043.869801	-38.484182	621.734721	855.015986	-57.049434	623.353065	836.636722	-188.420955	536.177825	713.081893	-48.538107	504.862523	632.479302	-68.591737	439.007520	575.711566	-70.267023	526.196231	622.888913	-101.232409	344.227173	470.671319	-86.286769	274.983987	472.831405	-135.448977	538.071920	355.599890	-126.715260	461.857966	350.674478	-59.078634	353.709369	1026.514987	-469.093338	399.580125	954.922098	-465.473053	434.462716	964.692616	-458.215514	403.533327	864.665658	-464.873260	427.533992	728.478382	-446.564209	443.950036	712.004313	-320.982236	110.605238	441.607717	-419.475966	52.254062	460.809789	-382.309590	130.323731	266.774552	-446.494815	333.144949	644.325638	-464.452250	290.490309	572.252473	-447.658145	214.643019	527.518308	-441.966580	314.980761	551.832164	-425.820205	203.645293	202.759410	-377.398769	-170.490043	971.829681	-174.350248	1.165386	83.008783	-460.739244	-15.441987	81.235673	-62.242603	
